<mxfile host="app.diagrams.net" modified="2024-05-20T21:25:55.683Z" agent="Mozilla/5.0 (Windows NT 10.0; Win64; x64) AppleWebKit/537.36 (KHTML, like Gecko) Chrome/125.0.0.0 Safari/537.36 Edg/125.0.0.0" etag="w8NSDYm3VVhKJGUdLz9f" version="24.4.4" type="github">
  <diagram id="C5RBs43oDa-KdzZeNtuy" name="Page-1">
    <mxGraphModel dx="2022" dy="1230" grid="1" gridSize="10" guides="1" tooltips="1" connect="1" arrows="1" fold="1" page="1" pageScale="1" pageWidth="827" pageHeight="1169" math="0" shadow="0">
      <root>
        <mxCell id="WIyWlLk6GJQsqaUBKTNV-0" />
        <mxCell id="WIyWlLk6GJQsqaUBKTNV-1" parent="WIyWlLk6GJQsqaUBKTNV-0" />
        <mxCell id="iPjBNKT3dGC8h8w_bpgF-3" value="Начало" style="strokeWidth=2;html=1;shape=mxgraph.flowchart.start_1;whiteSpace=wrap;" vertex="1" parent="WIyWlLk6GJQsqaUBKTNV-1">
          <mxGeometry x="40" y="310" width="100" height="60" as="geometry" />
        </mxCell>
        <mxCell id="iPjBNKT3dGC8h8w_bpgF-4" value="Загрузка&lt;br&gt;изображений" style="shape=parallelogram;html=1;strokeWidth=2;perimeter=parallelogramPerimeter;whiteSpace=wrap;rounded=1;arcSize=0;size=0.13636363636363635;" vertex="1" parent="WIyWlLk6GJQsqaUBKTNV-1">
          <mxGeometry x="30" y="400" width="110" height="60" as="geometry" />
        </mxCell>
        <mxCell id="iPjBNKT3dGC8h8w_bpgF-6" style="edgeStyle=orthogonalEdgeStyle;rounded=0;orthogonalLoop=1;jettySize=auto;html=1;entryX=0.545;entryY=0;entryDx=0;entryDy=0;entryPerimeter=0;" edge="1" parent="WIyWlLk6GJQsqaUBKTNV-1" source="iPjBNKT3dGC8h8w_bpgF-3" target="iPjBNKT3dGC8h8w_bpgF-4">
          <mxGeometry relative="1" as="geometry" />
        </mxCell>
        <mxCell id="iPjBNKT3dGC8h8w_bpgF-56" style="edgeStyle=orthogonalEdgeStyle;rounded=0;orthogonalLoop=1;jettySize=auto;html=1;entryX=0.5;entryY=0;entryDx=0;entryDy=0;" edge="1" parent="WIyWlLk6GJQsqaUBKTNV-1" source="iPjBNKT3dGC8h8w_bpgF-7" target="iPjBNKT3dGC8h8w_bpgF-53">
          <mxGeometry relative="1" as="geometry">
            <Array as="points">
              <mxPoint x="200" y="90" />
              <mxPoint x="765" y="90" />
            </Array>
          </mxGeometry>
        </mxCell>
        <mxCell id="iPjBNKT3dGC8h8w_bpgF-7" value="i = 1, n" style="strokeWidth=2;html=1;shape=mxgraph.flowchart.loop_limit;whiteSpace=wrap;rotation=-90;" vertex="1" parent="WIyWlLk6GJQsqaUBKTNV-1">
          <mxGeometry x="150" y="400" width="100" height="60" as="geometry" />
        </mxCell>
        <mxCell id="iPjBNKT3dGC8h8w_bpgF-8" style="edgeStyle=orthogonalEdgeStyle;rounded=0;orthogonalLoop=1;jettySize=auto;html=1;entryX=0.5;entryY=0;entryDx=0;entryDy=0;entryPerimeter=0;" edge="1" parent="WIyWlLk6GJQsqaUBKTNV-1" source="iPjBNKT3dGC8h8w_bpgF-4" target="iPjBNKT3dGC8h8w_bpgF-7">
          <mxGeometry relative="1" as="geometry" />
        </mxCell>
        <mxCell id="iPjBNKT3dGC8h8w_bpgF-12" style="edgeStyle=orthogonalEdgeStyle;rounded=0;orthogonalLoop=1;jettySize=auto;html=1;entryX=0.5;entryY=0;entryDx=0;entryDy=0;" edge="1" parent="WIyWlLk6GJQsqaUBKTNV-1" source="iPjBNKT3dGC8h8w_bpgF-9" target="iPjBNKT3dGC8h8w_bpgF-10">
          <mxGeometry relative="1" as="geometry" />
        </mxCell>
        <mxCell id="iPjBNKT3dGC8h8w_bpgF-9" value="Обрезка колонтитула" style="rounded=1;whiteSpace=wrap;html=1;absoluteArcSize=1;arcSize=14;strokeWidth=2;" vertex="1" parent="WIyWlLk6GJQsqaUBKTNV-1">
          <mxGeometry x="250" y="405" width="100" height="45" as="geometry" />
        </mxCell>
        <mxCell id="iPjBNKT3dGC8h8w_bpgF-10" value="Сохранение результатов обрезки" style="rounded=1;whiteSpace=wrap;html=1;absoluteArcSize=1;arcSize=14;strokeWidth=2;" vertex="1" parent="WIyWlLk6GJQsqaUBKTNV-1">
          <mxGeometry x="250" y="470" width="100" height="60" as="geometry" />
        </mxCell>
        <mxCell id="iPjBNKT3dGC8h8w_bpgF-11" style="edgeStyle=orthogonalEdgeStyle;rounded=0;orthogonalLoop=1;jettySize=auto;html=1;entryX=0.018;entryY=0.596;entryDx=0;entryDy=0;entryPerimeter=0;" edge="1" parent="WIyWlLk6GJQsqaUBKTNV-1" source="iPjBNKT3dGC8h8w_bpgF-7" target="iPjBNKT3dGC8h8w_bpgF-9">
          <mxGeometry relative="1" as="geometry" />
        </mxCell>
        <mxCell id="iPjBNKT3dGC8h8w_bpgF-16" style="edgeStyle=orthogonalEdgeStyle;rounded=0;orthogonalLoop=1;jettySize=auto;html=1;entryX=0;entryY=0.5;entryDx=0;entryDy=0;" edge="1" parent="WIyWlLk6GJQsqaUBKTNV-1" source="iPjBNKT3dGC8h8w_bpgF-13" target="iPjBNKT3dGC8h8w_bpgF-15">
          <mxGeometry relative="1" as="geometry">
            <Array as="points">
              <mxPoint x="420" y="518" />
              <mxPoint x="490" y="518" />
            </Array>
          </mxGeometry>
        </mxCell>
        <mxCell id="iPjBNKT3dGC8h8w_bpgF-40" style="edgeStyle=orthogonalEdgeStyle;rounded=0;orthogonalLoop=1;jettySize=auto;html=1;entryX=0;entryY=0.5;entryDx=0;entryDy=0;" edge="1" parent="WIyWlLk6GJQsqaUBKTNV-1" source="iPjBNKT3dGC8h8w_bpgF-13" target="iPjBNKT3dGC8h8w_bpgF-38">
          <mxGeometry relative="1" as="geometry">
            <Array as="points">
              <mxPoint x="420" y="360" />
              <mxPoint x="250" y="360" />
              <mxPoint x="250" y="218" />
              <mxPoint x="270" y="218" />
            </Array>
          </mxGeometry>
        </mxCell>
        <mxCell id="iPjBNKT3dGC8h8w_bpgF-13" value="Режим без измерений?" style="strokeWidth=2;html=1;shape=mxgraph.flowchart.decision;whiteSpace=wrap;" vertex="1" parent="WIyWlLk6GJQsqaUBKTNV-1">
          <mxGeometry x="370" y="377.5" width="100" height="100" as="geometry" />
        </mxCell>
        <mxCell id="iPjBNKT3dGC8h8w_bpgF-14" style="edgeStyle=orthogonalEdgeStyle;rounded=0;orthogonalLoop=1;jettySize=auto;html=1;entryX=0;entryY=0.5;entryDx=0;entryDy=0;entryPerimeter=0;" edge="1" parent="WIyWlLk6GJQsqaUBKTNV-1" source="iPjBNKT3dGC8h8w_bpgF-9" target="iPjBNKT3dGC8h8w_bpgF-13">
          <mxGeometry relative="1" as="geometry" />
        </mxCell>
        <mxCell id="iPjBNKT3dGC8h8w_bpgF-15" value="Детекция наночастиц" style="rounded=1;whiteSpace=wrap;html=1;absoluteArcSize=1;arcSize=14;strokeWidth=2;" vertex="1" parent="WIyWlLk6GJQsqaUBKTNV-1">
          <mxGeometry x="490" y="490" width="100" height="55" as="geometry" />
        </mxCell>
        <mxCell id="iPjBNKT3dGC8h8w_bpgF-21" style="edgeStyle=orthogonalEdgeStyle;rounded=0;orthogonalLoop=1;jettySize=auto;html=1;entryX=0;entryY=0.5;entryDx=0;entryDy=0;" edge="1" parent="WIyWlLk6GJQsqaUBKTNV-1" source="iPjBNKT3dGC8h8w_bpgF-17" target="iPjBNKT3dGC8h8w_bpgF-20">
          <mxGeometry relative="1" as="geometry" />
        </mxCell>
        <mxCell id="iPjBNKT3dGC8h8w_bpgF-30" style="edgeStyle=orthogonalEdgeStyle;rounded=0;orthogonalLoop=1;jettySize=auto;html=1;entryX=0.5;entryY=1;entryDx=0;entryDy=0;" edge="1" parent="WIyWlLk6GJQsqaUBKTNV-1" source="iPjBNKT3dGC8h8w_bpgF-17" target="iPjBNKT3dGC8h8w_bpgF-29">
          <mxGeometry relative="1" as="geometry">
            <mxPoint x="640" y="450" as="targetPoint" />
          </mxGeometry>
        </mxCell>
        <mxCell id="iPjBNKT3dGC8h8w_bpgF-17" value="i = 1, n" style="strokeWidth=2;html=1;shape=mxgraph.flowchart.loop_limit;whiteSpace=wrap;rotation=-90;" vertex="1" parent="WIyWlLk6GJQsqaUBKTNV-1">
          <mxGeometry x="590" y="490" width="100" height="60" as="geometry" />
        </mxCell>
        <mxCell id="iPjBNKT3dGC8h8w_bpgF-19" style="edgeStyle=orthogonalEdgeStyle;rounded=0;orthogonalLoop=1;jettySize=auto;html=1;entryX=0.525;entryY=0;entryDx=0;entryDy=0;entryPerimeter=0;" edge="1" parent="WIyWlLk6GJQsqaUBKTNV-1" source="iPjBNKT3dGC8h8w_bpgF-15" target="iPjBNKT3dGC8h8w_bpgF-17">
          <mxGeometry relative="1" as="geometry" />
        </mxCell>
        <mxCell id="iPjBNKT3dGC8h8w_bpgF-24" style="edgeStyle=orthogonalEdgeStyle;rounded=0;orthogonalLoop=1;jettySize=auto;html=1;entryX=0;entryY=0.5;entryDx=0;entryDy=0;" edge="1" parent="WIyWlLk6GJQsqaUBKTNV-1" source="iPjBNKT3dGC8h8w_bpgF-20" target="iPjBNKT3dGC8h8w_bpgF-22">
          <mxGeometry relative="1" as="geometry" />
        </mxCell>
        <mxCell id="iPjBNKT3dGC8h8w_bpgF-20" value="Сегментация области интереса" style="rounded=1;whiteSpace=wrap;html=1;absoluteArcSize=1;arcSize=14;strokeWidth=2;" vertex="1" parent="WIyWlLk6GJQsqaUBKTNV-1">
          <mxGeometry x="690" y="492.5" width="100" height="55" as="geometry" />
        </mxCell>
        <mxCell id="iPjBNKT3dGC8h8w_bpgF-28" value="" style="edgeStyle=orthogonalEdgeStyle;rounded=0;orthogonalLoop=1;jettySize=auto;html=1;" edge="1" parent="WIyWlLk6GJQsqaUBKTNV-1" source="iPjBNKT3dGC8h8w_bpgF-22" target="iPjBNKT3dGC8h8w_bpgF-27">
          <mxGeometry relative="1" as="geometry" />
        </mxCell>
        <mxCell id="iPjBNKT3dGC8h8w_bpgF-22" value="Вычисление диаметра Ферета" style="rounded=1;whiteSpace=wrap;html=1;absoluteArcSize=1;arcSize=14;strokeWidth=2;" vertex="1" parent="WIyWlLk6GJQsqaUBKTNV-1">
          <mxGeometry x="810" y="492.5" width="110" height="55" as="geometry" />
        </mxCell>
        <mxCell id="iPjBNKT3dGC8h8w_bpgF-25" value="Конец цикла i" style="strokeWidth=2;html=1;shape=mxgraph.flowchart.loop_limit;whiteSpace=wrap;rotation=90;" vertex="1" parent="WIyWlLk6GJQsqaUBKTNV-1">
          <mxGeometry x="920" y="485" width="100" height="60" as="geometry" />
        </mxCell>
        <mxCell id="iPjBNKT3dGC8h8w_bpgF-26" style="edgeStyle=orthogonalEdgeStyle;rounded=0;orthogonalLoop=1;jettySize=auto;html=1;entryX=0.55;entryY=1;entryDx=0;entryDy=0;entryPerimeter=0;" edge="1" parent="WIyWlLk6GJQsqaUBKTNV-1" source="iPjBNKT3dGC8h8w_bpgF-22" target="iPjBNKT3dGC8h8w_bpgF-25">
          <mxGeometry relative="1" as="geometry" />
        </mxCell>
        <mxCell id="iPjBNKT3dGC8h8w_bpgF-27" value="Сохранение значения диаметра" style="rounded=1;whiteSpace=wrap;html=1;absoluteArcSize=1;arcSize=14;strokeWidth=2;" vertex="1" parent="WIyWlLk6GJQsqaUBKTNV-1">
          <mxGeometry x="810" y="415" width="110" height="55" as="geometry" />
        </mxCell>
        <mxCell id="iPjBNKT3dGC8h8w_bpgF-29" value="Аннотация изображения" style="rounded=1;whiteSpace=wrap;html=1;absoluteArcSize=1;arcSize=14;strokeWidth=2;" vertex="1" parent="WIyWlLk6GJQsqaUBKTNV-1">
          <mxGeometry x="585" y="380" width="110" height="55" as="geometry" />
        </mxCell>
        <mxCell id="iPjBNKT3dGC8h8w_bpgF-32" value="Конец цикла i" style="strokeWidth=2;html=1;shape=mxgraph.flowchart.loop_limit;whiteSpace=wrap;rotation=90;" vertex="1" parent="WIyWlLk6GJQsqaUBKTNV-1">
          <mxGeometry x="1010" y="400" width="100" height="60" as="geometry" />
        </mxCell>
        <mxCell id="iPjBNKT3dGC8h8w_bpgF-34" style="edgeStyle=orthogonalEdgeStyle;rounded=0;orthogonalLoop=1;jettySize=auto;html=1;entryX=0.5;entryY=1;entryDx=0;entryDy=0;entryPerimeter=0;" edge="1" parent="WIyWlLk6GJQsqaUBKTNV-1" source="iPjBNKT3dGC8h8w_bpgF-29" target="iPjBNKT3dGC8h8w_bpgF-32">
          <mxGeometry relative="1" as="geometry">
            <Array as="points">
              <mxPoint x="640" y="360" />
              <mxPoint x="970" y="360" />
              <mxPoint x="970" y="430" />
            </Array>
          </mxGeometry>
        </mxCell>
        <mxCell id="iPjBNKT3dGC8h8w_bpgF-35" value="Да" style="text;html=1;align=center;verticalAlign=middle;whiteSpace=wrap;rounded=0;" vertex="1" parent="WIyWlLk6GJQsqaUBKTNV-1">
          <mxGeometry x="415" y="477.5" width="60" height="30" as="geometry" />
        </mxCell>
        <mxCell id="iPjBNKT3dGC8h8w_bpgF-36" value="Нет" style="text;html=1;align=center;verticalAlign=middle;whiteSpace=wrap;rounded=0;" vertex="1" parent="WIyWlLk6GJQsqaUBKTNV-1">
          <mxGeometry x="354" y="370" width="60" height="30" as="geometry" />
        </mxCell>
        <mxCell id="iPjBNKT3dGC8h8w_bpgF-47" style="edgeStyle=orthogonalEdgeStyle;rounded=0;orthogonalLoop=1;jettySize=auto;html=1;entryX=0;entryY=0.5;entryDx=0;entryDy=0;" edge="1" parent="WIyWlLk6GJQsqaUBKTNV-1" source="iPjBNKT3dGC8h8w_bpgF-37" target="iPjBNKT3dGC8h8w_bpgF-46">
          <mxGeometry relative="1" as="geometry" />
        </mxCell>
        <mxCell id="iPjBNKT3dGC8h8w_bpgF-37" value="Детекция масштаба" style="rounded=1;whiteSpace=wrap;html=1;absoluteArcSize=1;arcSize=14;strokeWidth=2;" vertex="1" parent="WIyWlLk6GJQsqaUBKTNV-1">
          <mxGeometry x="280" y="270" width="110" height="55" as="geometry" />
        </mxCell>
        <mxCell id="iPjBNKT3dGC8h8w_bpgF-41" value="" style="edgeStyle=orthogonalEdgeStyle;rounded=0;orthogonalLoop=1;jettySize=auto;html=1;" edge="1" parent="WIyWlLk6GJQsqaUBKTNV-1" source="iPjBNKT3dGC8h8w_bpgF-38" target="iPjBNKT3dGC8h8w_bpgF-39">
          <mxGeometry relative="1" as="geometry" />
        </mxCell>
        <mxCell id="iPjBNKT3dGC8h8w_bpgF-44" style="edgeStyle=orthogonalEdgeStyle;rounded=0;orthogonalLoop=1;jettySize=auto;html=1;entryX=0.5;entryY=0;entryDx=0;entryDy=0;" edge="1" parent="WIyWlLk6GJQsqaUBKTNV-1" source="iPjBNKT3dGC8h8w_bpgF-38" target="iPjBNKT3dGC8h8w_bpgF-37">
          <mxGeometry relative="1" as="geometry" />
        </mxCell>
        <mxCell id="iPjBNKT3dGC8h8w_bpgF-38" value="Детекция рамки с масштабом" style="rounded=1;whiteSpace=wrap;html=1;absoluteArcSize=1;arcSize=14;strokeWidth=2;" vertex="1" parent="WIyWlLk6GJQsqaUBKTNV-1">
          <mxGeometry x="280" y="190" width="110" height="55" as="geometry" />
        </mxCell>
        <mxCell id="iPjBNKT3dGC8h8w_bpgF-49" style="edgeStyle=orthogonalEdgeStyle;rounded=0;orthogonalLoop=1;jettySize=auto;html=1;entryX=0.5;entryY=0;entryDx=0;entryDy=0;" edge="1" parent="WIyWlLk6GJQsqaUBKTNV-1" source="iPjBNKT3dGC8h8w_bpgF-39" target="iPjBNKT3dGC8h8w_bpgF-45">
          <mxGeometry relative="1" as="geometry" />
        </mxCell>
        <mxCell id="iPjBNKT3dGC8h8w_bpgF-39" value="Подсчет пикселей в ширину рамки" style="rounded=1;whiteSpace=wrap;html=1;absoluteArcSize=1;arcSize=14;strokeWidth=2;" vertex="1" parent="WIyWlLk6GJQsqaUBKTNV-1">
          <mxGeometry x="280" y="110" width="110" height="55" as="geometry" />
        </mxCell>
        <mxCell id="iPjBNKT3dGC8h8w_bpgF-51" style="edgeStyle=orthogonalEdgeStyle;rounded=0;orthogonalLoop=1;jettySize=auto;html=1;entryX=0;entryY=0.5;entryDx=0;entryDy=0;" edge="1" parent="WIyWlLk6GJQsqaUBKTNV-1" source="iPjBNKT3dGC8h8w_bpgF-45" target="iPjBNKT3dGC8h8w_bpgF-50">
          <mxGeometry relative="1" as="geometry" />
        </mxCell>
        <mxCell id="iPjBNKT3dGC8h8w_bpgF-45" value="Расчет &lt;br&gt;масштаб на пиксель" style="rounded=1;whiteSpace=wrap;html=1;absoluteArcSize=1;arcSize=14;strokeWidth=2;" vertex="1" parent="WIyWlLk6GJQsqaUBKTNV-1">
          <mxGeometry x="415" y="190" width="110" height="55" as="geometry" />
        </mxCell>
        <mxCell id="iPjBNKT3dGC8h8w_bpgF-48" style="edgeStyle=orthogonalEdgeStyle;rounded=0;orthogonalLoop=1;jettySize=auto;html=1;" edge="1" parent="WIyWlLk6GJQsqaUBKTNV-1" source="iPjBNKT3dGC8h8w_bpgF-46">
          <mxGeometry relative="1" as="geometry">
            <mxPoint x="470" y="250" as="targetPoint" />
          </mxGeometry>
        </mxCell>
        <mxCell id="iPjBNKT3dGC8h8w_bpgF-46" value="Распознавание значения масштаба" style="rounded=1;whiteSpace=wrap;html=1;absoluteArcSize=1;arcSize=14;strokeWidth=2;" vertex="1" parent="WIyWlLk6GJQsqaUBKTNV-1">
          <mxGeometry x="415" y="270" width="110" height="55" as="geometry" />
        </mxCell>
        <mxCell id="iPjBNKT3dGC8h8w_bpgF-52" style="edgeStyle=orthogonalEdgeStyle;rounded=0;orthogonalLoop=1;jettySize=auto;html=1;entryX=0.5;entryY=0;entryDx=0;entryDy=0;" edge="1" parent="WIyWlLk6GJQsqaUBKTNV-1" source="iPjBNKT3dGC8h8w_bpgF-50" target="iPjBNKT3dGC8h8w_bpgF-15">
          <mxGeometry relative="1" as="geometry">
            <Array as="points">
              <mxPoint x="685" y="218" />
              <mxPoint x="685" y="300" />
              <mxPoint x="540" y="300" />
            </Array>
          </mxGeometry>
        </mxCell>
        <mxCell id="iPjBNKT3dGC8h8w_bpgF-50" value="Сохранение результатов" style="rounded=1;whiteSpace=wrap;html=1;absoluteArcSize=1;arcSize=14;strokeWidth=2;" vertex="1" parent="WIyWlLk6GJQsqaUBKTNV-1">
          <mxGeometry x="545" y="190" width="110" height="55" as="geometry" />
        </mxCell>
        <mxCell id="iPjBNKT3dGC8h8w_bpgF-57" style="edgeStyle=orthogonalEdgeStyle;rounded=0;orthogonalLoop=1;jettySize=auto;html=1;entryX=0;entryY=0.5;entryDx=0;entryDy=0;" edge="1" parent="WIyWlLk6GJQsqaUBKTNV-1" source="iPjBNKT3dGC8h8w_bpgF-53" target="iPjBNKT3dGC8h8w_bpgF-54">
          <mxGeometry relative="1" as="geometry" />
        </mxCell>
        <mxCell id="iPjBNKT3dGC8h8w_bpgF-53" value="Аннотация изображения" style="rounded=1;whiteSpace=wrap;html=1;absoluteArcSize=1;arcSize=14;strokeWidth=2;" vertex="1" parent="WIyWlLk6GJQsqaUBKTNV-1">
          <mxGeometry x="710" y="190" width="110" height="55" as="geometry" />
        </mxCell>
        <mxCell id="iPjBNKT3dGC8h8w_bpgF-54" value="Визуализация" style="shape=parallelogram;html=1;strokeWidth=2;perimeter=parallelogramPerimeter;whiteSpace=wrap;rounded=1;arcSize=0;size=0.13636363636363635;" vertex="1" parent="WIyWlLk6GJQsqaUBKTNV-1">
          <mxGeometry x="850" y="187.5" width="110" height="60" as="geometry" />
        </mxCell>
        <mxCell id="iPjBNKT3dGC8h8w_bpgF-55" value="Конец" style="strokeWidth=2;html=1;shape=mxgraph.flowchart.start_1;whiteSpace=wrap;" vertex="1" parent="WIyWlLk6GJQsqaUBKTNV-1">
          <mxGeometry x="990" y="187.5" width="100" height="60" as="geometry" />
        </mxCell>
        <mxCell id="iPjBNKT3dGC8h8w_bpgF-58" style="edgeStyle=orthogonalEdgeStyle;rounded=0;orthogonalLoop=1;jettySize=auto;html=1;entryX=0;entryY=0.5;entryDx=0;entryDy=0;entryPerimeter=0;" edge="1" parent="WIyWlLk6GJQsqaUBKTNV-1" source="iPjBNKT3dGC8h8w_bpgF-54" target="iPjBNKT3dGC8h8w_bpgF-55">
          <mxGeometry relative="1" as="geometry" />
        </mxCell>
        <mxCell id="iPjBNKT3dGC8h8w_bpgF-59" style="edgeStyle=orthogonalEdgeStyle;rounded=0;orthogonalLoop=1;jettySize=auto;html=1;entryX=0;entryY=0.5;entryDx=0;entryDy=0;entryPerimeter=0;" edge="1" parent="WIyWlLk6GJQsqaUBKTNV-1" source="iPjBNKT3dGC8h8w_bpgF-32" target="iPjBNKT3dGC8h8w_bpgF-7">
          <mxGeometry relative="1" as="geometry">
            <Array as="points">
              <mxPoint x="1060" y="600" />
              <mxPoint x="200" y="600" />
            </Array>
          </mxGeometry>
        </mxCell>
      </root>
    </mxGraphModel>
  </diagram>
</mxfile>
